<svg width="512" height="325" viewBox="0 0 512 325" fill="none" xmlns="http://www.w3.org/2000/svg">
<g clip-path="url(#clip0)">
<path d="M22.7657 28.3568V0.078125H31.9395V27.1945C31.9395 29.1062 32.3676 29.565 34.3246 29.565H35.1655L36.2511 37.0438C35.5631 37.1356 32.7039 37.3497 30.9762 37.3497C25.8848 37.3497 22.7657 35.5756 22.7657 28.3568Z" fill="white"/>
<path d="M93.3735 11.0891L100.544 10.5232L101.248 12.6644C102.685 11.3185 105.192 9.97266 110.605 9.97266C119.916 9.97266 122.057 16.5338 122.057 23.8443C122.057 31.1549 119.672 37.609 110.039 37.609C105.758 37.609 103.755 36.6302 102.593 35.5596V44.8737H93.4194L93.3735 11.0891ZM112.699 24.2114C112.699 21.1526 112.134 18.3538 108.113 18.3538C103.832 18.3538 102.578 20.5408 102.578 24.2114C102.578 27.882 103.51 29.9008 108.113 29.9008C112.042 29.9008 112.699 27.3314 112.699 24.2114V24.2114Z" fill="white"/>
<path d="M154.928 11.0896L162.069 10.5237L163.001 13.3225C164.163 11.7931 167.374 10.386 171.197 10.2637V19.1342C165.081 19.1342 164.117 21.0154 164.117 24.6554V37.2729H154.944L154.928 11.0896Z" fill="white"/>
<path d="M173.796 10.2638H178.551L180.08 4.84972L187.205 3.32031V10.2638H193.015V19.1344H187.205V26.7814C187.205 28.5861 187.48 29.519 190.37 29.519H193.015V37.166C191.623 37.2578 190.094 37.3037 188.428 37.3037C180.645 37.3037 178.092 34.826 178.092 28.1272V19.1344H173.903L173.796 10.2638Z" fill="white"/>
<path d="M203.198 29.5645H195.522V37.2421H203.198V29.5645Z" fill="white"/>
<path d="M0 10.5669H5.03025V10.0622C5.03025 3.34815 7.53773 -0.00124739 16.1916 -0.00124739C17.4673 -0.0261496 18.7434 0.0198032 20.014 0.136399V7.64577H17.4606C14.8003 7.64577 14.2498 8.30342 14.2498 10.0316V10.5822H20.014V18.3516H14.2498V37.255H5.07612V18.3516H0V10.5669Z" fill="white"/>
<path d="M56.3116 29.2884C54.7827 30.1754 54.0029 30.3742 50.9603 30.3742C47.352 30.3742 45.9606 29.1048 45.502 26.9178H63.2225C63.5436 17.5273 62.7485 9.94141 50.9909 9.94141C39.2332 9.94141 36.6952 16.4567 36.6952 23.7213C36.6952 30.986 39.1874 37.746 51.0368 37.746C54.8227 37.9423 58.5723 36.9242 61.7394 34.8401L56.3116 29.2884ZM50.6851 17.5273C54.4769 17.5273 54.7521 19.3319 54.8897 21.5037H45.4102C45.7772 18.9649 46.9697 17.5273 50.6851 17.5273V17.5273Z" fill="white"/>
<path d="M81.4935 37.2579L76.9678 30.8039L72.4574 37.2579H62.1522L71.7999 23.5239L63.039 11.1051L73.4512 11.0898L77.0136 16.1522L80.5914 11.0898L91.1106 11.1051L82.1815 23.4627L91.8597 37.2579H81.4935Z" fill="white"/>
<path d="M123.952 23.8443C123.952 14.9891 128.004 9.97266 138.431 9.97266C148.859 9.97266 152.895 14.9891 152.895 23.8443C152.895 32.6996 148.889 37.7619 138.462 37.7619C128.034 37.7619 123.952 32.6843 123.952 23.8443ZM143.599 24.1196C143.599 20.7702 142.758 18.3538 138.431 18.3538C134.104 18.3538 133.263 20.7702 133.263 24.1196C133.263 27.469 134.104 29.9008 138.431 29.9008C142.758 29.9008 143.599 27.4232 143.599 24.1196V24.1196Z" fill="white"/>
<path d="M499.172 324.342H512L421.18 231.492L511.97 136.669H426.578L377.391 186.635C325.713 133.794 278.636 85.6942 277.551 84.6083C275.135 82.2072 242.691 49.7532 200.966 63.6708C157.528 78.1542 153.889 110.7 153.889 140.141L153.981 225.971V227.057C153.981 232.196 154.195 244.217 145.709 252.812C139.196 259.419 128.707 262.769 114.549 262.769H110.085C95.9112 262.769 85.4379 259.419 78.9093 252.812C70.4236 244.217 70.5765 232.196 70.653 227.057V60.5049H61.4793V226.919C61.4793 232.67 61.204 247.918 72.3807 259.236C80.6523 267.647 93.2662 271.93 110.085 271.93H114.549C131.245 271.93 143.936 267.663 152.238 259.236C163.414 247.918 163.231 232.67 163.155 226.919L163.048 140.11C163.048 105.852 169.729 83.7977 203.84 72.419C240.076 60.3367 269.019 89.166 270.992 91.0777C271.878 91.9495 319.475 140.585 370.954 193.211L358.432 205.936L258.836 103.879C255.307 100.218 251.379 96.9659 247.125 94.1824C243.716 91.8932 239.999 90.1011 236.086 88.8601C223.64 85.2813 212.157 87.0707 200.92 94.3048C179.056 108.467 179.79 137.48 179.912 140.019L179.744 230.437C179.744 230.911 179.744 231.462 179.744 232.089C179.851 240.286 180.095 259.496 166.335 273.383C155.831 284.089 139.104 289.426 116.659 289.426H109.779C50.6849 289.426 41.8628 252.43 41.8628 230.315V225.895V60.5049H32.6891V226.017V230.437C32.6891 250.946 40.2115 298.664 109.779 298.664H116.659C141.657 298.664 160.571 292.347 172.863 279.883C189.33 263.212 189.024 240.516 188.917 231.966C188.917 231.385 188.917 230.881 188.917 230.437L189.086 139.912C189.086 139.912 189.086 139.743 189.086 139.667C189.086 139.59 188.015 113.667 205.904 101.998C214.848 96.2012 223.625 94.8248 233.425 97.6694C236.473 98.6677 239.365 100.089 242.018 101.891C245.744 104.287 249.186 107.099 252.277 110.272L351.965 212.467L339.657 224.962L247.69 128.242C243.99 124.312 240.046 120.32 235.535 118.454C232.584 117.104 229.351 116.489 226.111 116.659C222.871 116.83 219.721 117.781 216.928 119.433C210.995 123.119 207.464 130.001 206.944 138.612V144.836L207.035 230.666V231.141C207.035 244.905 207.035 265.69 195.629 283.278C181.869 304.445 154.608 315.181 114.488 315.181C98.6611 315.408 82.8869 313.306 67.6715 308.941C32.5056 298.235 15.0297 274.453 14.1582 236.371V60.4896H4.9845V236.509C5.87129 278.583 26.0382 305.913 64.9347 317.766C81.0201 322.377 97.6957 324.598 114.427 324.358C157.849 324.358 187.817 312.214 203.259 288.264C216.148 268.382 216.148 245.089 216.148 231.141L216.056 144.714V139.04C216.408 133.458 218.411 129.267 221.698 127.218C223.246 126.343 224.984 125.86 226.761 125.809C228.538 125.759 230.301 126.142 231.896 126.927C234.694 128.089 238.012 131.515 240.948 134.574L333.143 231.538L242.033 324.098H332.425L376.963 277.604L421.425 324.373H434.054L383.308 270.997L395.999 257.737L461.01 324.373H473.807L402.344 251.115L414.774 238.145L499.172 324.342Z" fill="white"/>
</g>
<defs>
<clipPath id="clip0">
<rect width="512" height="324.356" fill="white"/>
</clipPath>
</defs>
</svg>
