<svg xmlns="http://www.w3.org/2000/svg" viewBox="0 0 334.87 212.08"><defs><style>.cls-1{fill:#24303e;}</style></defs><g id="Layer_2" data-name="Layer 2"><g id="Lockup_-_Color" data-name="Lockup - Color"><path class="cls-1" d="M14.89,18.54V.05h6V17.78c0,1.25.28,1.55,1.56,1.55H23l.71,4.89c-.45.06-2.32.2-3.45.2C16.93,24.42,14.89,23.26,14.89,18.54Z"/><path class="cls-1" d="M61.07,7.25l4.69-.37.46,1.4c.94-.88,2.58-1.76,6.12-1.76,6.09,0,7.49,4.29,7.49,9.07s-1.56,9-7.86,9c-2.8,0-4.11-.64-4.87-1.34v6.09h-6Zm12.64,8.58c0-2-.37-3.83-3-3.83-2.8,0-3.62,1.43-3.62,3.83s.61,3.72,3.62,3.72C73.28,19.55,73.71,17.87,73.71,15.83Z"/><path class="cls-1" d="M101.33,7.25,106,6.88l.61,1.83c.76-1,2.86-1.92,5.36-2v5.8c-4,0-4.63,1.23-4.63,3.61v8.25h-6Z"/><path class="cls-1" d="M113.67,6.71h3.11l1-3.54,4.66-1V6.71h3.8v5.8h-3.8v5c0,1.18.18,1.79,2.07,1.79h1.73v5c-.91.06-1.91.09-3,.09-5.09,0-6.76-1.62-6.76-6V12.51h-2.74Z"/><rect class="cls-1" x="127.88" y="19.33" width="5.02" height="5.02"/><path class="cls-1" d="M0,6.91H3.29V6.58C3.29,2.19,4.93,0,10.59,0a22.55,22.55,0,0,1,2.5.09V5H11.42c-1.74,0-2.1.43-2.1,1.56v.36h3.77V12H9.32V24.36h-6V12H0Z"/><path class="cls-1" d="M36.83,19.15c-1,.58-1.51.71-3.5.71-2.36,0-3.27-.83-3.57-2.26H41.35c.21-6.14-.31-11.1-8-11.1S24,10.76,24,15.51s1.63,9.17,9.38,9.17a11.64,11.64,0,0,0,7-1.9Zm-3.68-7.69c2.48,0,2.66,1.18,2.75,2.6H29.7C29.94,12.4,30.72,11.46,33.15,11.46Z"/><polygon class="cls-1" points="53.3 24.36 50.34 20.14 47.39 24.36 40.65 24.36 46.96 15.38 41.23 7.26 48.04 7.25 50.37 10.56 52.71 7.25 59.59 7.26 53.75 15.34 60.08 24.36 53.3 24.36"/><path class="cls-1" d="M81.07,15.59c0-5.79,2.65-9.07,9.47-9.07S100,9.8,100,15.59s-2.62,9.1-9.44,9.1S81.07,21.37,81.07,15.59Zm12.85.18c0-2.19-.55-3.77-3.38-3.77s-3.38,1.58-3.38,3.77.55,3.78,3.38,3.78S93.92,17.93,93.92,15.77Z"/><path class="cls-1" d="M326.48,212.07h8.39l-59.4-60.71,59.38-62H279l-32.17,32.67c-33.8-34.55-64.59-66-65.3-66.71-1.58-1.57-22.8-22.79-50.09-13.69-28.41,9.47-30.79,30.75-30.79,50l.06,56.12v.71c0,3.36.14,11.22-5.41,16.84-4.26,4.32-11.12,6.51-20.38,6.51H72c-9.27,0-16.12-2.19-20.39-6.51-5.55-5.62-5.45-13.48-5.4-16.84V39.56h-6V148.37c0,3.76-.18,13.73,7.13,21.13C52.75,175,61,177.8,72,177.8h2.92c10.92,0,19.22-2.79,24.65-8.3,7.31-7.4,7.19-17.37,7.14-21.13l-.07-56.76c0-22.4,4.37-36.82,26.68-44.26,23.7-7.9,42.63,10.95,43.92,12.2.58.57,31.71,32.37,65.38,66.78l-8.19,8.32L169.29,67.92a44.42,44.42,0,0,0-7.66-6.34,28.29,28.29,0,0,0-7.22-3.48c-8.14-2.34-15.65-1.17-23,3.56-14.3,9.26-13.82,28.23-13.74,29.89l-.11,59.12c0,.31,0,.67,0,1.08.07,5.36.23,17.92-8.77,27-6.87,7-17.81,10.49-32.49,10.49h-4.5c-38.65,0-44.42-24.19-44.42-38.65l0-2.89V39.56h-6V147.78l0,2.89c0,13.41,4.92,44.61,50.42,44.61h4.5c16.35,0,28.72-4.13,36.76-12.28,10.77-10.9,10.57-25.74,10.5-31.33,0-.38,0-.71,0-1l.11-59.19s0-.11,0-.16-.7-17,11-24.63c5.85-3.79,11.59-4.69,18-2.83a22.43,22.43,0,0,1,5.62,2.76A38.27,38.27,0,0,1,165,72.1l65.2,66.82-8.05,8.17L162,83.85c-2.42-2.57-5-5.18-7.95-6.4a13.16,13.16,0,0,0-12.17.64C138,80.5,135.69,85,135.35,90.63V94.7l.06,56.12v.31c0,9,0,22.59-7.46,34.09-9,13.84-26.83,20.86-53.07,20.86A105.6,105.6,0,0,1,44.26,202c-23-7-34.43-22.55-35-47.45v-115h-6V154.64c.58,27.51,13.77,45.38,39.21,53.13a111.68,111.68,0,0,0,32.37,4.31c28.4,0,48-7.94,58.1-23.6,8.43-13,8.43-28.23,8.43-37.35l-.06-56.51V90.91c.23-3.65,1.54-6.39,3.69-7.73a7.15,7.15,0,0,1,6.67-.19c1.83.76,4,3,5.92,5l60.3,63.4-59.59,60.52h59.12l29.13-30.4,29.08,30.58h8.26l-33.19-34.9,8.3-8.67,42.52,43.57h8.37l-46.74-47.9,8.13-8.48Z"/></g></g></svg>